<?xml version="1.0" encoding="UTF-8"?>
<!-- Created with Inkscape (http://www.inkscape.org/) -->
<svg width="210mm" height="210mm" version="1.1" viewBox="0 0 210 210" xmlns="http://www.w3.org/2000/svg" xmlns:cc="http://creativecommons.org/ns#" xmlns:dc="http://purl.org/dc/elements/1.1/" xmlns:rdf="http://www.w3.org/1999/02/22-rdf-syntax-ns#">
 <metadata>
  <rdf:RDF>
   <cc:Work rdf:about="">
    <dc:format>image/svg+xml</dc:format>
    <dc:type rdf:resource="http://purl.org/dc/dcmitype/StillImage"/>
    <dc:title/>
   </cc:Work>
  </rdf:RDF>
 </metadata>
 <g transform="translate(0,-87)">
  <path d="m45.11 284.46c-0.59393-1.0054-0.60549-0.98681 5.0032-8.0655 6.3422-8.0044 6.094-7.0955 2.471-9.0505-0.78728-0.42483-2.3544-1.4466-3.1157-2.0313-0.41363-0.31774-1.719-1.289-2.9008-2.1583-3.6822-2.7087-9.4972-8.0232-11.722-10.714-0.99286-1.2004-0.93827-1.2316-3.4467 1.9701-12.159 15.52-11.963 15.328-13.446 13.107-2.8502-4.2694-5.2791-11.452-6.1992-18.333-0.19645-1.469-0.40109-2.9852-0.45474-3.3693-0.0537-0.38409-0.18987-0.69834-0.30269-0.69834-0.12054 0-0.20514-1.2458-0.20514-3.0209 0-1.8211 0.0799-2.9716 0.20109-2.8966 0.11059 0.0684 0.25621-0.33689 0.3236-0.90054 0.80513-6.7347 1.6952-10.54 3.557-15.206 0.3772-0.94544 0.86737-2.1935 1.0893-2.7735 0.2219-0.57997 0.64796-1.424 0.94679-1.8755 0.29884-0.45157 0.54334-0.87047 0.54334-0.93089 0-0.0604 0.42974-0.78027 0.95497-1.5997 0.52523-0.81942 1.2101-1.9934 1.522-2.6089s0.763-1.3239 1.0025-1.5743c0.23948-0.25038 0.80096-0.93871 1.2478-1.5296s0.99479-1.2678 1.2178-1.5041c0.22299-0.23636 0.63818-0.76817 0.92264-1.1818s0.81364-1.1016 1.176-1.5289c0.36233-0.42726 1.2389-1.526 1.948-2.4416 0.70909-0.91559 1.5793-2.0263 1.9339-2.4682 0.35454-0.44191 0.9347-1.1793 1.2892-1.6387 0.35454-0.45938 0.98649-1.223 1.4043-1.6971 0.7414-0.84108 2.1784-2.6723 3.1744-4.0456 0.27289-0.37621 0.76519-0.9741 1.094-1.3286 0.32881-0.35454 0.8281-0.98304 1.1096-1.3967 0.28144-0.41363 0.69417-0.94544 0.91716-1.1818 0.223-0.23636 0.771-0.91321 1.2178-1.5041 0.44679-0.5909 0.99217-1.2678 1.212-1.5042 0.39799-0.42811 1.9198-2.3654 2.7918-3.5541 0.52422-0.71458 1.6618-2.1429 4.2713-5.3631 2.0295-2.5044 4.0335-5.0504 4.7922-6.0884 0.27344-0.37406 0.71058-0.92184 0.97142-1.2173 0.26084-0.29546 0.76231-0.92333 1.1144-1.3953s0.89721-1.1488 1.2114-1.5041c0.3142-0.35532 0.94271-1.1353 1.3967-1.7332 0.45398-0.59796 1.5023-1.9369 2.3295-2.9755 0.82726-1.0386 2.5908-3.2567 3.919-4.9292 1.3282-1.6725 2.8487-3.5728 3.3789-4.2228 1.0356-1.2695 1.94-2.4219 3.3726-4.2975 0.49648-0.64999 0.96291-1.2302 1.0365-1.2892 0.0736-0.0591 0.41879-0.49413 0.76708-0.96675 0.3483-0.47263 0.81233-1.0528 1.0312-1.2892 0.21886-0.23645 0.65398-0.76834 0.96693-1.182 0.31295-0.41364 1.4908-1.9124 2.6175-3.3306 1.1267-1.4182 2.6567-3.352 3.4-4.2975 0.74334-0.94544 1.6587-2.0942 2.0341-2.5527 1.7347-2.1188 2.3432-2.8868 2.9923-3.7763 0.38417-0.52645 1.0482-1.3483 1.4755-1.8264 0.42736-0.47808 0.94997-1.2077 1.1614-1.6213 0.21139-0.41364 1.1188-1.6681 2.0164-2.7878 0.8976-1.1196 1.8254-2.2938 2.0617-2.6092 0.78539-1.0481 5.7851-7.382 6.1184-7.7511 0.18032-0.19968 1.2948-1.6207 2.4766-3.1578 1.1818-1.5371 2.2938-2.8505 2.471-2.9186 0.17727-0.0681 0.90245-0.87104 1.6115-1.7842 7.9596-10.251 17.567-9.9008 25.151 0.91809 0.5799 0.82726 1.83 2.4721 2.778 3.6553s2.1267 2.6819 2.6192 3.3305c1.4663 1.9311 2.2624 2.6773 3.5094 3.2895 2.3442 1.1508 9.6642 5.6087 10.099 6.1504 0.0591 0.0736 0.63925 0.51345 1.2892 0.97747 1.8182 1.298 4.3056 3.31 6.1612 4.9836 0.92491 0.83422 1.9895 1.7741 2.3658 2.0886 0.87491 0.73122 6.6606 7.052 7.4924 8.1855 0.34695 0.47272 0.68456 0.90784 0.75024 0.96693 0.30626 0.27549 3.8866 5.1944 4.2454 5.8327 0.22294 0.39654 1.0997 1.833 1.9483 3.192 1.5375 2.4623 5.113 9.4902 5.8486 11.496 0.0867 0.23636 0.4957 1.3483 0.90892 2.471 0.41321 1.1227 0.95539 2.6056 1.2048 3.2953 0.24946 0.68969 0.79505 2.5752 1.2124 4.19 0.80545 3.1162 0.90722 3.3335 2.4414 5.2143 0.5401 0.66211 1.6042 2.0026 2.3646 2.9788s1.4883 1.8849 1.6174 2.0193c2.1342 2.2206 4.2987 5.5086 5.324 8.0871 0.11748 0.29545 0.29901 0.70509 0.4034 0.9103s0.1898 0.59682 0.1898 0.87024 0.0872 0.58898 0.19379 0.70125c0.36345 0.38283 0.90094 6.5612 0.68195 7.8389-0.11078 0.64628-0.26463 1.9238-0.3419 2.8389-0.0773 0.91511-0.22899 1.7185-0.33716 1.7854-0.10817 0.0669-0.19668 0.31055-0.19668 0.54154s-0.0877 0.58788-0.19499 0.79309c-0.10725 0.20521-0.50686 1.122-0.88803 2.0373-1.1838 2.8425-3.5401 5.771-6.4403 8.004-0.76667 0.59031-2.2158 1.8614-3.2204 2.8247-1.0045 0.96325-2.1648 2.0645-2.5785 2.4472-1.6203 1.4993-10.279 9.6985-13.527 12.809-1.1282 1.0806-2.3898 2.2761-2.8034 2.6567-4.1667 3.8342-8.5949 8.2009-8.5949 8.4754 0 0.20873-17.643 17.755-19.146 19.04-0.28317 0.24227-3.3306 3.215-6.772 6.6061-6.7115 6.6133-13.517 13.167-13.915 13.399-0.13437 0.0785-15.658 0.17607-34.498 0.21675-27.03 0.0583-34.272 0.13019-34.342 0.34066-0.19795 0.59384-2.0759 0.32301-2.4778-0.35733zm63.664-22.982c3.9155-0.61692 6.1046-1.1176 6.7685-1.5481 0.11818-0.0766 1.1818-0.65355 2.3636-1.282 1.1818-0.6285 2.9706-1.826 3.9752-2.6611 1.0045-0.83511 2.0155-1.6642 2.2466-1.8425 2.4044-1.855 7.8449-8.4581 8.666-10.518 0.0679-0.17028 0.87953-1.608 1.8037-3.1949 0.92414-1.5869 1.6803-2.9268 1.6803-2.9775 0-0.0508 0.33842-0.62131 0.75205-1.2679s0.75206-1.224 0.75206-1.2832c0-0.0591 0.24693-0.4987 0.54873-0.97678 0.30179-0.47808 0.72221-1.1772 0.93425-1.5536 0.61102-1.0846 2.6021-4.5195 2.8254-4.8744 0.11158-0.17727 0.55336-0.95082 0.98173-1.719 1.1564-2.0737 1.506-2.6756 2.1114-3.6346 0.3018-0.47808 0.54872-0.91162 0.54872-0.96343 0-0.0518 0.59262-1.0932 1.3169-2.3142s1.4819-2.51 1.6836-2.8646c1.1622-2.0431 1.6808-2.9452 3.7678-6.5536 1.2644-2.1863 2.4669-4.2652 2.6721-4.6198 0.20518-0.35454 0.63962-1.1281 0.96542-1.719 0.32579-0.5909 0.68013-1.1662 0.78742-1.2785 1.1068-1.1582-0.27626-4.7746-3.3009-8.6311-1.0774-1.3738-7.9779-10.071-10.648-13.421-0.51093-0.64096-1.1878-1.497-1.5041-1.9024-1.0321-1.3226-4.7277-5.9745-6.3072-7.9393-0.51099-0.63565-1.1225-1.4116-1.3588-1.7244-0.39367-0.52098-4.535-5.7366-7.7154-9.7169-0.72009-0.90119-2.2762-2.8682-3.458-4.3711-1.1818-1.5029-2.6322-3.3319-3.2231-4.0643s-1.2261-1.5619-1.4116-1.8432c-0.84053-1.2749-0.8446-1.1521-0.8446 25.467 0 14.116-0.068 25.665-0.15104 25.665-0.13892 0-11.591-4.427-13.064-5.0502-0.35454-0.14999-1.2248-0.49126-1.9339-0.75839s-1.6277-0.62642-2.0413-0.79843c-0.81861-0.34041-0.901-0.37299-3.1157-1.2316-1.9317-0.74894-2.0999-0.81609-3.7207-1.4852-0.74642-0.30815-1.4808-0.56027-1.632-0.56027-0.86976 0-0.96749-0.57664-0.93846-5.5371 0.0154-2.6251-0.0353-4.8362-0.11256-4.9134-0.22131-0.22131-4.2028 0.36994-5.1994 0.77212-0.80994 0.32685-3.9197 1.2983-4.156 1.2983-0.24267 0-2.396 0.90875-3.1328 1.3221-0.6222 0.34907-1.9926 1.0984-3.6698 2.0064-1.9146 1.0366-3.136 1.8616-4.6198 3.1203-0.64999 0.55138-1.4235 1.1873-1.719 1.4132-0.64167 0.49054-3.8395 3.6874-4.2975 4.2962-0.17727 0.23565-0.90781 1.1499-1.6234 2.0317-1.6706 2.0586-2.021 2.5717-3.0026 4.3966-1.74 3.2349-2.8124 5.4422-3.0867 6.3535-0.15765 0.52371-0.36039 1.1456-0.45055 1.382-0.2044 0.53586-1.1763 3.7882-1.4768 4.9421-0.21304 0.81796-0.43321 2.5519-0.87404 6.8834-0.11772 1.1566-0.1203 2.8068-6e-3 4.0826 0.10515 1.1777 0.19463 2.4455 0.19885 2.8173 6e-3 0.5585-0.64564 1.4924-3.7501 5.3718-4.3454 5.4301-4.2332 5.0619-2.2208 7.2877 5.0014 5.5318 14.995 13.846 16.642 13.846 0.0665 0 0.40905 0.20519 0.76126 0.45599 0.72008 0.51274 7.4077 3.8252 8.6655 4.2921 5.021 1.8639 9.4014 3.1169 12.678 3.6265 0.70908 0.11029 2.2078 0.36282 3.3305 0.56119 4.3808 0.77401 14.124 0.72561 19.339-0.0961zm-16.438-11.307c-10.549-1.4548-18.691-7.7204-22.901-17.623-4.7254-11.114-0.48879-25.879 9.5163-33.164 0.67449-0.49116 1.2769-0.89302 1.3388-0.89302 0.0618 0 0.62196-0.32044 1.2447-0.71208 3.5583-2.2378 7.2248-3.2942 8.733-2.5162 0.19226 0.0992 1.2682 0.53828 2.3909 0.97578 1.1227 0.43749 2.2347 0.87214 2.471 0.96588 0.23636 0.0937 1.1066 0.43286 1.9339 0.75361 0.82726 0.32074 1.6975 0.66121 1.9339 0.7566 1.81 0.73046 5.4703 2.1674 9.5619 3.7537 2.6591 1.0309 5.1247 1.9987 5.4793 2.1505s1.3698 0.54483 2.2562 0.87325c0.88636 0.32842 1.7034 0.67635 1.8157 0.77318 0.11227 0.0968 0.37113 0.17605 0.57526 0.17605 0.90032 0 2.8866 3.4772 4.0505 7.0908 1.1979 3.7192 1.64 10.566 0.89489 13.859-0.30737 1.3586-1.2918 4.717-1.5432 5.2644-5.7235 12.466-17.233 19.242-29.752 17.516zm32.768 34.082c0-0.10313 0.45929-0.60234 1.0206-1.1094s2.8133-2.6707 5.0043-4.8083c6.9742-6.804 10.581-10.288 12.347-11.928 0.94517-0.87748 3.8941-3.7216 6.5531-6.3203 5.3496-5.2282 10.686-10.418 13.7-13.323l1.9713-1.9002 0.92035 0.14232c18.119 2.8019 18.865 34.943 0.9074 39.108-1.6023 0.37161-42.425 0.50592-42.425 0.13959zm-111.4-73.998c-0.10161-0.45987-0.36448-2.1597-0.77257-4.9958-0.18438-1.2814-0.60043-7.6532-0.68749-10.529-0.0987-3.2599 0.36149-9.7785 0.91012-12.892 0.10411-0.5909 0.24782-1.5578 0.31935-2.1487 0.20171-1.6663 0.813-4.4057 1.7501-7.8429 0.30609-1.1227 0.60432-2.283 0.66272-2.5785 0.0584-0.29545 0.42786-1.4074 0.82101-2.471 0.39314-1.0636 1.0679-2.9008 1.4994-4.0826 0.43149-1.1818 1.368-3.3574 2.0811-4.8347s1.4988-3.121 1.7461-3.6528 0.86534-1.6206 1.3736-2.4195c0.50824-0.79892 0.92408-1.4971 0.92408-1.5515 0-0.52788 5.5315-8.4851 7.4714-10.748 4.2608-4.9698 7.3539-8.0579 12.28-12.259 0.42318-0.36097 1.3012-1.0358 1.9512-1.4997 0.64999-0.46388 1.2993-0.94209 1.4429-1.0627 0.71785-0.60279 1.0197-0.81347 4.8334-3.3738 0.32021-0.21497 0.63258-0.39086 0.69416-0.39086 0.0616 0 0.62626-0.32899 1.2548-0.73108 2.0067-1.2837 2.9713-1.8058 6.9738-3.7748 2.155-1.0602 4.6219-2.1638 5.4819-2.4525 1.4539-0.48806 2.2008-0.76828 3.2774-1.2296 0.87868-0.37656 4.4243-1.4985 5.3121-1.6809 0.50557-0.10387 1.8378-0.44263 2.9605-0.7528 2.2047-0.60908 3.6158-0.90144 5.8016-1.202 0.76817-0.10562 2.412-0.35047 3.6528-0.54411 3.2292-0.5039 7.3083-0.65965 7.2972-0.27863-7e-3 0.23109-1.9111 2.7296-4.5628 5.9865-0.14482 0.17787-0.79292 0.99976-1.4402 1.8264-1.1026 1.4082-5.1563 6.5424-8.3662 10.596-0.77848 0.98317-1.5758 1.9789-1.7718 2.2127-0.19601 0.23381-1.4047 0.79708-2.6859 1.2517-1.2812 0.45463-2.7163 0.97172-3.189 1.1491-1.1224 0.42112-6.8628 3.2274-7.8855 3.855-0.4371 0.2682-1.5759 0.95636-2.5306 1.5292-7.48 4.4883-16.944 13.833-21.049 20.783-0.16954 0.28707-0.96726 1.6116-1.7727 2.9433-0.80545 1.3318-1.4644 2.4552-1.4644 2.4965 0 0.0413-0.56906 1.2724-1.2646 2.7356-0.69552 1.4633-1.4142 3.0956-1.5971 3.6274-0.18288 0.53182-0.59152 1.6438-0.90808 2.471-0.84646 2.212-2.2965 7.6939-2.6714 10.099-0.11052 0.70908-0.30692 1.9661-0.43646 2.7934-0.12953 0.82727-0.32215 2.2465-0.42805 3.1539-0.10661 0.91339-0.34046 1.8245-0.52393 2.0413-0.18225 0.21534-1.1608 1.5035-2.1745 2.8626-1.0137 1.3591-2.2475 2.9917-2.7418 3.6281-0.49426 0.63639-1.1404 1.4729-1.4358 1.8589-2.1643 2.8276-3.3721 4.383-3.8497 4.9574-0.30534 0.36721-0.70021 0.85349-0.87749 1.0806-1.1327 1.4513-2.1042 2.6242-2.5735 3.1069-0.29818 0.30677-0.97727 1.1989-1.5091 1.9825-1.0206 1.5038-1.4274 1.7453-1.6028 0.95148z" stroke-width=".21487"/>
 </g>
</svg>
